<svg height="16" viewBox="0 0 16 16" width="16" xmlns="http://www.w3.org/2000/svg"><path d="m11.168.94540563c.3063-.459528.9272-.583702 1.3867-.27735.4595.306353.5837.927221.2774 1.386751l-3.45503 5.18249 1.93363 2.67732c.0338.04685.063.09568997.0877.14578997.1943-.0395.3955-.0603.6016-.0603 1.6569 0 3 1.3431 3 3s-1.3431 3-3 3c-1.65685 0-3-1.3431-3-3 0-.7275.25896-1.3945.68974-1.9139l-1.49686-2.07261997-.36081.54122c-.30636.45949997-.92723.58369997-1.38675.27735-.45953-.30635-.58371-.92722-.27735-1.38675l.77499-1.16249-3.75363-5.19732c-.32335-.44772-.22253-1.07281.22519-1.396168.44773-.323358 1.07281-.222538 1.39617.225188l3.31646 4.59202zm-.168 12.05470097c0 .5523.4477 1 1 1s1-.4477 1-1-.4477-1-1-1-1 .4477-1 1zm-7-3c1.65685 0 3 1.3431 3 3s-1.34315 3-3 3-3-1.3431-3-3 1.34315-3 3-3zm-1 3c0 .5523.44772 1 1 1s1-.4477 1-1-.44772-1-1-1-1 .4477-1 1z" fill="white" /></svg>